<svg xmlns="http://www.w3.org/2000/svg" width="900" height="480" viewBox="0 0 900 480">
<rect width="100%" height="100%" fill="#fffdf5"/>
<text x="60" y="32" font-family="sans-serif" font-size="22" fill="#173f35">Ani Gemma 3 LoRA — training loss</text>
<line x1="60" y1="420" x2="840" y2="420" stroke="#173f35"/>
<line x1="60" y1="60" x2="60" y2="420" stroke="#173f35"/>
<polyline points="60.0,60.0 86.9,202.3 113.8,276.7 140.7,287.8 167.6,303.5 194.5,321.8 221.4,375.3 248.3,355.8 275.2,405.5 302.1,404.4 329.0,415.8 355.9,418.3 382.8,419.1 409.7,416.7 436.6,418.2 463.4,418.4 490.3,415.7 517.2,415.8 544.1,419.9 571.0,407.8 597.9,418.6 624.8,419.1 651.7,419.4 678.6,419.5 705.5,418.9 732.4,419.9 759.3,419.6 786.2,420.0 813.1,420.0 840.0,419.7" fill="none" stroke="#d99b28" stroke-width="4"/>
<text x="60" y="462" font-family="monospace" font-size="14">optimizer step</text>
<text x="68" y="78" font-family="monospace" font-size="14">loss 3.2036 → 0.0027</text>
</svg>